<svg id="svg" version="1.1" xmlns="http://www.w3.org/2000/svg" xmlns:xlink="http://www.w3.org/1999/xlink" width="400" height="255.31914893617022" viewBox="0, 0, 400,255.31914893617022"><g id="svgg"><path id="path0" d="M0.000 127.842 L 0.000 218.902 200.000 218.902 L 400.000 218.902 400.000 127.842 L 400.000 36.782 200.000 36.782 L 0.000 36.782 0.000 127.842 M133.019 49.872 L 132.950 55.811 128.416 55.881 L 123.883 55.950 123.883 60.025 L 123.883 64.100 128.161 64.170 L 132.439 64.240 132.439 69.860 L 132.439 75.479 128.161 75.549 L 123.883 75.619 123.883 80.594 L 123.883 85.568 128.863 85.568 L 133.844 85.568 133.844 91.571 L 133.844 97.573 121.201 97.573 L 108.557 97.573 108.557 70.754 L 108.557 43.934 120.822 43.934 L 133.087 43.934 133.019 49.872 M160.792 52.874 C 160.879 53.014,161.216 53.129,161.542 53.129 C 163.256 53.129,166.165 55.392,166.883 57.284 C 167.737 59.535,167.882 62.516,167.996 80.140 L 168.109 97.573 160.555 97.573 L 153.001 97.573 152.976 80.524 C 152.949 62.689,152.927 62.245,152.065 62.119 C 151.126 61.983,151.087 62.666,151.013 80.268 L 150.941 97.573 143.542 97.573 L 136.143 97.573 136.143 75.479 L 136.143 53.384 143.678 53.384 L 151.213 53.384 151.213 54.164 L 151.213 54.943 152.053 54.302 C 152.515 53.950,153.567 53.486,154.391 53.271 C 155.214 53.057,155.948 52.822,156.020 52.750 C 156.266 52.504,160.633 52.617,160.792 52.874 M191.315 53.214 C 196.340 54.320,200.196 57.726,200.905 61.686 C 201.006 62.248,201.187 62.833,201.308 62.986 C 201.721 63.511,202.108 70.810,201.735 71.049 C 201.554 71.166,198.359 71.233,194.636 71.199 L 187.867 71.137 187.729 67.050 C 187.563 62.146,187.242 61.205,186.174 62.491 C 185.553 63.240,185.669 86.917,186.300 88.186 C 187.548 90.698,188.237 89.159,188.428 83.430 L 188.586 78.672 195.315 78.672 L 202.043 78.672 202.035 79.630 C 201.934 91.137,198.962 96.575,192.082 97.835 C 191.169 98.002,190.222 98.242,189.978 98.367 C 189.410 98.659,182.961 98.667,182.781 98.376 C 182.707 98.256,182.039 98.093,181.297 98.015 C 177.343 97.598,173.699 94.946,172.330 91.488 C 171.134 88.471,170.883 85.722,170.882 75.675 C 170.881 60.381,171.412 58.405,176.397 55.157 C 178.019 54.100,180.780 53.129,182.163 53.129 C 182.544 53.129,182.931 53.008,183.023 52.859 C 183.268 52.462,189.016 52.708,191.315 53.214 M224.777 53.194 C 231.114 54.522,234.752 58.231,235.490 64.115 C 235.827 66.802,235.838 83.596,235.505 86.757 C 234.911 92.387,231.365 96.631,226.360 97.701 C 225.279 97.932,224.040 98.228,223.609 98.358 C 222.609 98.660,216.816 98.668,216.040 98.368 C 215.717 98.243,214.591 98.011,213.538 97.851 C 210.173 97.342,206.804 95.048,205.730 92.535 C 204.194 88.938,204.240 89.366,204.142 77.778 C 204.055 67.507,204.194 64.450,204.852 62.197 C 204.975 61.775,205.200 60.951,205.352 60.364 C 206.139 57.329,210.086 54.065,213.804 53.376 C 214.711 53.208,215.683 52.973,215.964 52.854 C 216.756 52.519,222.640 52.746,224.777 53.194 M260.987 52.831 C 261.239 52.991,261.295 54.812,261.243 61.065 L 261.175 69.093 259.387 69.283 C 253.726 69.884,253.661 70.081,253.648 86.526 L 253.640 97.573 246.232 97.573 L 238.825 97.573 238.825 75.479 L 238.825 53.384 246.232 53.384 L 253.640 53.384 253.640 54.406 C 253.640 55.649,253.708 55.657,254.934 54.549 C 255.469 54.065,256.403 53.537,257.008 53.376 C 257.614 53.214,258.282 52.984,258.493 52.865 C 258.985 52.586,260.568 52.565,260.987 52.831 M282.886 53.101 C 284.853 53.483,287.612 54.388,287.612 54.651 C 287.612 54.763,287.976 55.006,288.421 55.190 C 290.589 56.088,292.937 59.391,293.499 62.333 C 293.673 63.241,293.936 64.139,294.084 64.327 C 294.255 64.544,294.358 66.927,294.367 70.840 L 294.381 77.011 286.015 77.079 L 277.650 77.146 277.650 82.678 C 277.650 88.394,277.783 89.144,278.795 89.144 C 279.953 89.144,280.190 88.173,280.262 83.132 L 280.332 78.289 287.356 78.289 L 294.381 78.289 294.453 81.992 C 294.631 91.105,291.260 96.640,284.802 97.839 C 283.889 98.009,282.907 98.255,282.620 98.386 C 281.270 99.004,274.035 98.337,271.002 97.316 C 266.899 95.933,263.788 92.265,263.087 87.979 C 262.752 85.939,262.764 66.361,263.101 64.034 C 263.938 58.250,266.988 54.705,272.172 53.492 C 273.148 53.264,274.234 52.983,274.585 52.868 C 275.460 52.581,281.008 52.737,282.886 53.101 M219.389 62.480 C 218.378 63.697,218.834 89.181,219.866 89.136 C 220.948 89.089,220.947 89.107,220.915 76.089 C 220.880 61.802,220.770 60.818,219.389 62.480 M277.914 62.563 C 277.769 62.835,277.650 64.386,277.650 66.011 L 277.650 68.966 278.703 68.966 L 279.757 68.966 279.619 66.220 C 279.432 62.496,278.743 61.016,277.914 62.563 M386.845 127.842 L 386.845 130.396 200.319 130.460 L 13.793 130.524 13.793 127.842 L 13.793 125.159 200.319 125.223 L 386.845 125.287 386.845 127.842 M74.700 158.147 C 74.800 159.291,74.984 160.411,75.108 160.637 C 75.232 160.863,75.510 162.455,75.726 164.176 C 76.756 172.406,76.925 173.598,77.128 174.074 C 77.320 174.524,77.828 178.104,78.704 185.185 C 78.852 186.379,79.067 187.586,79.183 187.867 C 79.298 188.148,79.699 190.734,80.073 193.614 C 80.448 196.494,80.925 199.885,81.135 201.149 C 81.345 202.414,81.677 204.425,81.873 205.619 C 82.069 206.814,82.234 208.222,82.239 208.748 L 82.248 209.706 74.457 209.706 C 70.172 209.706,66.664 209.620,66.661 209.515 C 66.659 209.409,66.488 207.369,66.282 204.981 C 66.076 202.593,65.906 200.552,65.904 200.447 C 65.902 200.342,65.218 200.255,64.383 200.255 L 62.867 200.255 62.726 201.341 C 62.580 202.465,62.069 208.685,62.069 209.337 C 62.069 209.651,60.886 209.706,54.151 209.706 L 46.232 209.706 46.242 209.004 C 46.247 208.617,46.419 207.152,46.624 205.747 C 46.829 204.342,47.465 199.687,48.037 195.402 C 48.609 191.117,49.140 187.209,49.216 186.718 C 49.292 186.226,49.744 182.778,50.221 179.055 C 50.698 175.332,51.202 171.481,51.341 170.498 C 51.614 168.565,53.129 156.464,53.129 156.217 C 53.129 156.134,57.942 156.066,63.824 156.066 L 74.519 156.066 74.700 158.147 M294.508 160.153 L 294.508 164.240 286.845 164.240 L 279.183 164.240 279.183 160.153 L 279.183 156.066 286.845 156.066 L 294.508 156.066 294.508 160.153 M133.532 163.270 L 133.604 166.515 135.193 166.591 L 136.782 166.667 136.852 170.690 L 136.922 174.713 135.268 174.713 L 133.613 174.713 133.535 178.863 C 133.345 188.941,133.463 200.743,133.757 201.036 C 133.919 201.199,134.810 201.393,135.736 201.467 L 137.420 201.603 137.420 205.654 L 137.420 209.706 131.992 209.701 C 123.705 209.693,121.680 209.188,119.967 206.697 C 118.647 204.778,118.677 205.149,118.573 189.464 L 118.476 174.713 117.086 174.713 L 115.696 174.713 115.766 170.690 L 115.837 166.667 117.178 166.589 L 118.519 166.512 118.519 163.201 L 118.519 159.890 125.990 159.958 L 133.461 160.026 133.532 163.270 M274.330 163.218 L 274.330 166.539 275.990 166.539 L 277.650 166.539 277.650 170.626 L 277.650 174.713 275.990 174.713 L 274.330 174.713 274.330 187.840 C 274.330 202.764,274.055 201.218,276.756 201.500 L 278.289 201.660 278.289 205.619 L 278.289 209.579 271.648 209.579 L 265.006 209.579 263.523 208.827 C 259.495 206.786,259.489 206.759,259.326 189.080 L 259.193 174.713 257.949 174.713 L 256.705 174.713 256.705 170.626 L 256.705 166.539 257.982 166.539 L 259.259 166.539 259.259 163.218 L 259.259 159.898 266.794 159.898 L 274.330 159.898 274.330 163.218 M158.365 165.240 C 161.515 165.711,162.654 166.175,165.458 168.128 C 166.695 168.990,168.537 171.572,168.963 173.041 C 170.606 178.700,170.595 197.151,168.946 202.383 C 167.688 206.374,163.613 209.611,159.193 210.130 C 158.449 210.218,157.779 210.388,157.704 210.509 C 157.520 210.807,151.317 210.788,150.337 210.486 C 149.906 210.354,148.739 210.117,147.743 209.960 C 142.878 209.194,139.497 205.682,138.721 200.590 C 138.259 197.553,138.355 179.148,138.850 175.814 C 139.735 169.855,143.337 166.047,148.734 165.363 C 149.466 165.271,150.199 165.124,150.365 165.037 C 150.840 164.787,156.254 164.925,158.365 165.240 M215.029 165.267 C 216.672 165.657,217.931 166.378,218.962 167.520 C 220.328 169.031,220.329 169.034,221.099 173.052 C 221.272 173.953,221.417 202.946,221.269 206.960 L 221.168 209.706 214.032 209.706 L 206.897 209.706 206.892 193.423 C 206.886 176.473,206.802 174.984,205.807 174.356 C 204.507 173.536,204.360 175.505,204.351 193.934 L 204.342 209.706 197.063 209.706 L 189.783 209.706 189.757 192.656 C 189.731 175.285,189.693 174.393,188.958 174.251 C 187.636 173.997,187.618 174.239,187.536 192.645 L 187.460 209.706 180.351 209.706 L 173.242 209.706 173.064 192.018 C 172.967 182.289,172.924 172.375,172.970 169.987 L 173.052 165.645 180.396 165.577 L 187.739 165.509 187.739 166.452 L 187.739 167.394 188.317 166.851 C 191.277 164.071,198.880 164.342,202.080 167.343 L 203.266 168.455 203.909 167.816 C 205.025 166.708,205.468 166.362,206.351 165.912 C 208.246 164.946,212.385 164.638,215.029 165.267 M243.934 165.073 C 244.144 165.142,245.144 165.326,246.156 165.482 C 248.128 165.787,250.064 166.451,250.064 166.822 C 250.064 166.947,250.224 167.050,250.419 167.050 C 251.150 167.050,253.369 169.383,254.140 170.962 C 255.356 173.453,255.492 175.670,255.525 193.614 L 255.556 209.579 248.340 209.646 L 241.124 209.714 241.124 209.070 L 241.124 208.426 240.058 209.198 C 239.472 209.622,238.550 210.040,238.009 210.127 C 237.468 210.213,236.964 210.384,236.889 210.506 C 236.813 210.628,235.673 210.728,234.355 210.728 C 233.037 210.728,231.897 210.628,231.822 210.506 C 231.746 210.384,231.212 210.209,230.634 210.116 C 225.821 209.347,224.638 206.883,224.672 197.701 C 224.705 188.777,225.202 187.948,232.079 185.346 C 233.075 184.969,234.335 184.434,234.879 184.157 L 235.868 183.653 230.194 183.653 L 224.521 183.653 224.521 180.632 C 224.521 171.008,227.440 166.521,234.381 165.474 C 235.350 165.328,236.296 165.134,236.484 165.044 C 236.871 164.856,243.349 164.881,243.934 165.073 M318.008 165.262 C 321.885 165.873,326.419 168.557,327.077 170.630 C 327.165 170.909,327.336 171.137,327.457 171.137 C 327.876 171.137,328.685 173.838,328.989 176.255 C 329.479 180.147,329.208 199.393,328.635 201.405 C 327.287 206.137,323.515 209.464,318.774 210.102 C 318.142 210.187,317.390 210.370,317.103 210.507 C 315.906 211.082,308.467 210.483,305.251 209.554 C 301.662 208.517,298.940 205.238,298.193 201.048 C 297.669 198.109,297.692 179.517,298.224 175.806 C 299.246 168.681,303.122 165.533,311.494 165.027 C 314.764 164.829,315.409 164.852,318.008 165.262 M359.004 165.548 C 360.492 165.926,362.669 167.896,363.320 169.453 C 364.075 171.260,364.240 175.423,364.240 192.620 L 364.240 209.706 356.833 209.706 L 349.425 209.706 349.406 193.167 C 349.386 175.172,349.347 174.373,348.482 174.250 C 347.500 174.110,347.406 175.343,347.330 189.400 C 347.290 196.705,347.222 204.264,347.178 206.198 L 347.099 209.714 339.769 209.646 L 332.439 209.579 332.374 187.544 L 332.309 165.510 339.909 165.577 L 347.510 165.645 347.592 166.229 L 347.675 166.813 348.541 166.277 C 350.112 165.306,356.066 164.477,357.344 165.051 C 357.554 165.146,358.301 165.369,359.004 165.548 M97.627 183.162 C 97.708 202.508,97.675 202.111,99.134 201.200 C 99.600 200.909,99.617 200.281,99.617 183.204 L 99.617 165.510 107.088 165.577 L 114.559 165.645 114.549 174.840 C 114.544 179.898,114.515 189.812,114.486 196.871 L 114.432 209.706 107.024 209.706 C 99.787 209.706,99.617 209.695,99.617 209.195 C 99.617 208.553,99.492 208.557,98.558 209.222 C 95.209 211.606,87.752 210.982,85.147 208.098 C 82.856 205.562,82.763 204.586,82.761 182.950 L 82.759 165.517 90.156 165.517 L 97.554 165.517 97.627 183.162 M294.508 187.616 L 294.508 209.714 286.909 209.646 L 279.310 209.579 279.245 187.548 L 279.180 165.517 286.844 165.517 L 294.508 165.517 294.508 187.616 M153.513 174.838 C 153.354 175.255,153.257 180.256,153.257 187.963 C 153.257 201.294,153.305 201.827,154.455 201.122 C 154.960 200.812,155.313 176.970,154.839 175.141 C 154.570 174.100,153.856 173.937,153.513 174.838 M238.795 174.761 C 238.462 175.376,238.110 182.631,238.413 182.631 C 239.932 182.631,240.724 181.032,240.668 178.078 C 240.606 174.821,239.666 173.155,238.795 174.761 M312.900 174.838 C 312.741 175.255,312.644 180.256,312.644 187.963 C 312.644 201.294,312.692 201.827,313.842 201.122 C 314.346 200.813,314.697 177.561,314.231 175.320 C 313.979 174.106,313.275 173.851,312.900 174.838 M64.035 179.055 C 63.519 182.021,63.070 185.349,62.926 187.292 L 62.760 189.527 64.105 189.527 L 65.450 189.527 65.269 187.420 C 64.860 182.647,64.195 178.139,64.035 179.055 M239.798 191.890 C 237.752 194.626,237.813 201.229,239.883 201.269 C 240.576 201.282,240.691 200.593,240.810 195.722 C 240.932 190.752,240.858 190.472,239.798 191.890 " stroke="none" fill="#0499fc" fill-rule="evenodd"></path><path id="path1" d="M108.875 70.817 L 108.940 97.446 121.328 97.446 L 133.716 97.446 133.785 91.635 L 133.854 85.824 128.868 85.824 L 123.883 85.824 123.883 80.587 L 123.883 75.351 128.097 75.351 L 132.312 75.351 132.312 69.860 L 132.312 64.368 128.124 64.368 L 123.936 64.368 123.824 63.282 C 123.762 62.685,123.722 60.760,123.733 59.004 L 123.755 55.811 128.289 55.741 L 132.822 55.671 132.822 49.930 L 132.822 44.189 120.816 44.189 L 108.810 44.189 108.875 70.817 M154.363 53.333 C 153.637 53.591,152.639 54.111,152.145 54.487 C 151.019 55.347,151.007 55.345,150.910 54.342 L 150.830 53.512 143.550 53.512 L 136.271 53.512 136.271 75.479 L 136.271 97.446 143.423 97.446 L 150.575 97.446 150.702 80.332 C 150.837 62.279,150.869 61.814,151.989 61.814 C 153.130 61.814,153.122 61.702,153.257 80.052 L 153.384 97.446 160.536 97.446 L 167.688 97.446 167.686 80.077 C 167.682 58.440,167.566 57.388,164.927 55.004 C 162.686 52.979,157.616 52.177,154.363 53.333 M182.631 53.042 C 177.896 53.779,173.433 56.781,172.217 60.047 C 171.021 63.260,170.660 84.998,171.734 89.085 C 173.422 95.507,177.868 98.323,186.335 98.333 C 196.974 98.345,201.525 93.547,201.531 82.312 L 201.533 78.672 195.186 78.672 L 188.840 78.672 188.692 83.372 C 188.533 88.421,188.332 89.144,187.091 89.144 C 185.545 89.144,185.440 88.286,185.452 75.827 C 185.463 64.536,185.582 62.460,186.242 62.042 C 187.423 61.294,187.852 62.559,187.958 67.102 L 188.049 71.009 194.791 71.009 L 201.533 71.009 201.532 68.391 C 201.529 60.708,199.539 56.879,194.253 54.380 C 191.457 53.058,186.327 52.468,182.631 53.042 M214.815 53.162 C 209.908 53.962,205.961 57.699,204.902 62.549 C 204.329 65.176,204.161 85.440,204.687 88.489 C 205.889 95.455,210.345 98.344,219.878 98.338 C 229.419 98.332,234.260 94.632,235.240 86.597 C 235.877 81.379,235.503 63.958,234.698 61.303 C 232.813 55.089,224.324 51.613,214.815 53.162 M257.558 53.240 C 256.431 53.593,255.240 54.330,254.087 55.389 L 253.384 56.034 253.384 54.709 L 253.384 53.384 246.232 53.384 L 239.080 53.384 239.041 65.326 C 239.019 71.893,238.990 81.807,238.977 87.356 L 238.953 97.446 246.105 97.446 L 253.257 97.446 253.409 85.441 C 253.606 69.894,253.720 69.573,259.196 69.064 L 261.047 68.892 261.047 60.883 L 261.047 52.874 259.834 52.891 C 259.167 52.900,258.142 53.057,257.558 53.240 M273.621 53.158 C 269.262 53.884,265.151 57.083,264.085 60.579 C 262.575 65.529,262.353 84.879,263.751 89.675 C 264.456 92.092,267.811 96.296,269.035 96.296 C 269.118 96.296,269.912 96.632,270.800 97.042 C 274.923 98.946,283.126 98.827,287.266 96.804 C 292.349 94.320,294.253 90.244,294.253 81.846 L 294.253 78.416 287.384 78.416 L 280.515 78.416 280.423 83.249 C 280.328 88.287,280.034 89.400,278.799 89.400 C 277.579 89.400,277.395 88.500,277.395 82.551 L 277.395 76.884 285.824 76.884 L 294.253 76.884 294.247 73.244 C 294.230 62.512,293.136 58.911,288.935 55.757 C 288.137 55.157,287.401 54.666,287.300 54.664 C 287.199 54.663,286.509 54.386,285.767 54.049 C 283.384 52.966,277.404 52.528,273.621 53.158 M220.547 62.381 C 221.252 63.386,221.137 88.381,220.425 89.025 C 219.919 89.483,219.891 89.481,219.340 88.930 C 218.759 88.349,218.300 67.910,218.778 63.921 C 219.010 61.982,219.791 61.302,220.547 62.381 M279.364 62.582 C 279.565 62.980,279.687 64.295,279.690 66.092 L 279.693 68.966 278.518 68.966 L 277.342 68.966 277.432 65.812 C 277.542 61.954,278.357 60.592,279.364 62.582 M53.299 156.492 C 53.206 156.586,53.122 157.189,53.113 157.833 C 53.104 158.477,52.877 160.556,52.608 162.452 C 52.338 164.349,51.714 168.946,51.220 172.669 C 50.727 176.392,50.201 180.243,50.052 181.226 C 49.903 182.209,49.384 186.117,48.898 189.911 C 48.413 193.704,47.664 199.549,47.234 202.899 C 46.804 206.250,46.515 209.154,46.592 209.353 C 46.708 209.655,47.952 209.703,54.208 209.646 L 61.686 209.579 61.986 206.513 C 62.152 204.828,62.362 202.730,62.454 201.852 L 62.620 200.255 64.359 200.255 L 66.097 200.255 66.245 201.596 C 66.327 202.334,66.458 203.972,66.538 205.236 C 66.618 206.501,66.744 208.024,66.818 208.621 L 66.953 209.706 74.353 209.706 C 80.872 209.706,81.771 209.658,81.908 209.301 C 82.069 208.882,81.659 205.329,81.217 203.321 C 81.078 202.688,80.500 198.895,79.934 194.891 C 78.848 187.215,76.993 174.547,76.137 168.966 C 75.530 165.006,74.583 158.620,74.404 157.280 L 74.276 156.322 63.873 156.322 C 58.151 156.322,53.393 156.398,53.299 156.492 M279.438 160.138 L 279.438 163.954 280.396 164.033 C 280.923 164.077,284.256 164.080,287.803 164.040 L 294.253 163.968 294.253 160.145 L 294.253 156.322 286.845 156.322 L 279.438 156.322 279.438 160.138 M118.899 160.213 C 118.834 160.391,118.750 161.916,118.713 163.602 L 118.646 166.667 117.305 166.744 L 115.964 166.821 115.964 170.767 L 115.964 174.713 117.356 174.713 L 118.747 174.713 118.824 189.464 L 118.902 204.215 119.610 205.658 C 120.659 207.792,122.712 209.157,124.917 209.184 C 125.416 209.190,125.941 209.313,126.085 209.456 C 126.250 209.621,128.302 209.692,131.691 209.648 L 137.037 209.579 137.107 205.714 L 137.178 201.850 135.660 201.741 C 133.131 201.558,133.333 202.766,133.333 187.836 L 133.333 174.713 134.994 174.713 L 136.654 174.713 136.654 170.754 L 136.654 166.794 135.001 166.794 L 133.348 166.794 133.277 163.410 L 133.206 160.026 126.111 159.958 C 120.571 159.905,118.991 159.961,118.899 160.213 M259.685 160.068 C 259.591 160.162,259.515 161.713,259.515 163.516 L 259.515 166.794 258.110 166.794 L 256.705 166.794 256.705 170.754 L 256.705 174.713 258.070 174.713 L 259.435 174.713 259.588 189.208 C 259.759 205.467,259.768 205.545,261.487 207.192 C 263.581 209.199,265.093 209.522,272.542 209.555 L 278.033 209.579 278.104 205.683 L 278.174 201.788 277.010 201.788 C 276.370 201.788,275.447 201.621,274.960 201.418 L 274.074 201.048 274.074 187.880 L 274.074 174.713 275.862 174.713 L 277.650 174.713 277.650 170.754 L 277.650 166.794 275.862 166.794 L 274.074 166.794 274.074 163.346 L 274.074 159.898 266.965 159.898 C 263.054 159.898,259.779 159.974,259.685 160.068 M148.914 165.349 C 146.297 165.862,143.577 167.308,142.015 169.017 C 140.827 170.317,140.432 170.963,139.700 172.797 C 139.465 173.386,139.041 175.585,138.666 178.161 C 138.252 181.003,138.543 198.903,139.041 201.220 C 140.501 208.014,145.460 210.791,155.428 210.397 C 163.525 210.076,168.161 206.607,169.385 199.954 C 169.852 197.415,169.867 177.345,169.404 175.096 C 167.858 167.587,158.997 163.372,148.914 165.349 M191.640 165.288 C 191.045 165.430,189.896 165.992,189.085 166.538 L 187.612 167.531 187.533 166.520 L 187.454 165.509 180.381 165.577 L 173.308 165.645 173.308 187.612 L 173.308 209.579 180.263 209.646 L 187.218 209.714 187.287 192.475 L 187.356 175.235 188.058 174.533 L 188.760 173.832 189.335 174.407 L 189.911 174.982 190.038 192.280 L 190.166 209.579 197.063 209.579 L 203.959 209.579 204.087 192.720 C 204.224 174.621,204.238 174.437,205.516 174.253 C 206.778 174.072,206.760 173.841,206.897 192.312 L 207.024 209.579 213.985 209.647 L 220.945 209.714 220.943 192.022 C 220.941 172.982,220.829 170.705,219.804 168.957 C 217.050 164.258,208.924 163.512,204.527 167.555 L 203.210 168.767 202.159 167.717 C 199.790 165.348,195.524 164.363,191.640 165.288 M234.866 165.389 C 227.847 166.708,224.970 170.630,224.608 179.374 L 224.441 183.397 230.484 183.397 C 237.010 183.397,237.429 183.496,234.802 184.419 C 229.809 186.174,226.370 188.196,225.582 189.842 C 223.792 193.577,224.255 204.531,226.323 207.386 C 228.578 210.499,235.752 211.547,239.471 209.308 C 241.214 208.258,241.379 208.238,241.379 209.072 L 241.379 209.714 248.340 209.647 L 255.300 209.579 255.287 193.870 C 255.270 172.545,255.064 171.040,251.777 168.234 C 248.450 165.394,241.266 164.185,234.866 165.389 M308.350 165.292 C 304.628 165.911,300.570 168.937,299.440 171.936 C 297.929 175.944,297.755 177.989,297.898 190.099 C 298.040 202.165,298.357 203.797,301.125 206.715 C 306.016 211.871,319.604 211.936,325.063 206.830 C 328.393 203.715,328.883 201.718,329.125 190.281 C 329.438 175.534,328.819 172.139,325.204 168.793 C 321.785 165.627,314.913 164.200,308.350 165.292 M351.341 165.230 C 350.459 165.462,349.089 166.139,348.109 166.829 C 347.193 167.472,347.126 167.444,347.126 166.411 L 347.126 165.517 339.845 165.517 L 332.564 165.517 332.629 187.548 L 332.695 209.579 339.767 209.646 L 346.839 209.714 346.932 205.049 C 346.983 202.483,347.050 194.849,347.080 188.084 C 347.142 174.355,347.243 173.517,348.767 174.102 C 349.492 174.380,349.541 175.366,349.674 192.337 L 349.808 209.579 356.833 209.579 L 363.857 209.579 363.929 192.209 C 364.028 168.654,363.917 168.027,359.252 165.769 C 357.900 165.115,353.040 164.784,351.341 165.230 M82.943 165.709 C 82.887 165.814,82.909 174.521,82.992 185.057 L 83.142 204.215 83.979 205.926 C 86.191 210.449,93.538 212.133,98.188 209.184 C 99.641 208.263,99.872 208.248,99.872 209.072 L 99.872 209.714 107.088 209.646 L 114.304 209.579 114.304 187.612 L 114.304 165.645 107.152 165.645 L 100.000 165.645 99.934 183.305 L 99.869 200.965 99.252 201.370 C 98.681 201.744,98.590 201.738,98.040 201.293 L 97.446 200.812 97.373 183.164 L 97.301 165.517 90.173 165.517 C 86.252 165.517,82.999 165.603,82.943 165.709 M279.500 187.548 L 279.566 209.579 286.845 209.579 L 294.125 209.579 294.190 187.548 L 294.256 165.517 286.845 165.517 L 279.435 165.517 279.500 187.548 M154.977 174.733 C 155.524 175.804,155.430 200.454,154.877 201.065 C 154.306 201.697,153.905 201.653,153.414 200.903 C 152.928 200.161,152.781 176.882,153.252 175.240 C 153.658 173.826,154.403 173.607,154.977 174.733 M240.264 174.601 C 241.610 176.656,240.919 181.636,239.171 182.470 L 238.279 182.895 238.360 178.842 C 238.457 174.034,239.040 172.734,240.264 174.601 M314.209 174.369 C 314.801 175.082,314.863 200.404,314.273 201.055 C 313.693 201.696,313.247 201.656,312.765 200.920 C 312.354 200.293,312.160 176.941,312.552 175.248 C 312.817 174.099,313.628 173.669,314.209 174.369 M64.882 182.265 C 65.169 185.346,65.429 188.269,65.461 188.761 L 65.517 189.655 64.049 189.732 C 62.277 189.824,62.365 190.554,63.223 182.886 C 64.148 174.620,64.169 174.612,64.882 182.265 M240.868 195.518 C 240.868 200.364,240.673 201.533,239.863 201.533 C 237.727 201.533,237.552 194.060,239.632 191.692 C 240.825 190.333,240.868 190.469,240.868 195.518 " stroke="none" fill="#fae4e5" fill-rule="evenodd"></path><path id="path2" d="M0.000 18.391 L 0.000 36.782 200.000 36.782 L 400.000 36.782 400.000 18.391 L 400.000 0.000 200.000 0.000 L 0.000 0.000 0.000 18.391 M13.793 127.842 L 13.793 130.268 200.255 130.268 L 386.718 130.268 386.718 127.842 L 386.718 125.415 200.255 125.415 L 13.793 125.415 13.793 127.842 M0.000 237.165 L 0.000 255.428 200.000 255.428 L 400.000 255.428 400.000 237.165 L 400.000 218.902 200.000 218.902 L 0.000 218.902 0.000 237.165 " stroke="none" fill="#0427fc" fill-rule="evenodd"></path><path id="path3" d="" stroke="none" fill="#40a0100" fill-rule="evenodd"></path><path id="path4" d="" stroke="none" fill="#40a0100" fill-rule="evenodd"></path></g></svg>